<?xml version="1.0" encoding="UTF-8"?>
<svg id="Capa_1" xmlns="http://www.w3.org/2000/svg" viewBox="0 0 1646.01 192.64">
  <defs>
    <style>
      .cls-1 {
        fill: #4cbf8c;
      }
    </style>
  </defs>
  <path class="cls-1" d="M386.61,53.95l-19.11,12.75c-8.6-12.54-22.65-20.42-39.53-20.42-28.92,0-50.15,20.92-50.15,51.46s21.23,51.47,50.15,51.47c16.79,0,30.63-7.59,39.43-20.32l18.61,13.65c-12.03,17.7-33.26,28.61-58.03,28.61-43.47,0-74.11-31.13-74.11-73.4s30.63-73.4,74.11-73.4c25.17-.01,47.51,11.21,58.63,29.61Z"/>
  <path class="cls-1" d="M494.88,120.09c0,29.02-22.24,50.96-52.17,50.96s-52.07-21.93-52.07-50.96,22.14-50.96,52.07-50.96,52.17,21.93,52.17,50.96ZM412.38,120.09c0,18.3,13.04,31.04,30.33,31.04s30.43-12.73,30.43-31.04-13.14-31.04-30.43-31.04-30.33,12.75-30.33,31.04Z"/>
  <path class="cls-1" d="M665.83,109.99v60.86h-21.23v-53.89c0-16.28-8.39-25.38-22.55-25.38s-25.07,9-25.07,25.58v53.68h-21.23v-53.89c0-16.28-8.39-25.38-22.55-25.38s-25.07,9-25.07,25.58v53.68h-21.23v-96.86h21.03v11.82c7.78-11.43,19.82-14.36,29.73-14.36,14.77,0,26.8,6.58,33.46,17.29,8.39-13.85,23.35-17.29,35.38-17.29,23.05.01,39.32,15.88,39.32,38.53Z"/>
  <path class="cls-1" d="M772.58,127.46c0,30.84-22.24,43.57-44.89,43.57s-44.89-12.73-44.89-43.57v-53.81h21.23v51.89c0,18.71,10.42,25.58,23.66,25.58s23.66-6.87,23.66-25.58v-51.89h21.23v53.81Z"/>
  <path class="cls-1" d="M880.65,110.12v60.86h-21.23v-53.89c0-16.28-8.39-25.38-22.55-25.38s-25.07,9-25.07,25.58v53.68h-21.23v-96.86h21.03v11.82c7.78-11.43,19.82-14.36,29.73-14.36,23.05,0,39.32,15.88,39.32,38.53Z"/>
  <path class="cls-1" d="M924.11,40.78c0,8.39-6.58,14.75-14.96,14.75s-14.77-6.37-14.77-14.75,6.37-14.96,14.77-14.96c8.38-.01,14.96,6.56,14.96,14.96ZM919.86,171.11h-21.23v-96.86h21.23v96.86Z"/>
  <path class="cls-1" d="M1010.76,84.86V24.39h21.13v148.16h-21.13v-14.19c-6.67,8.6-16.69,14.15-30.43,14.15-27.09,0-48.42-21.33-48.42-50.96s21.33-50.96,48.42-50.96c13.74,0,23.75,5.67,30.43,14.26ZM953.63,121.56c0,16.98,11.02,31.04,29.22,31.04s29.21-13.35,29.21-31.04-11.72-31.04-29.21-31.04c-18.2.01-29.22,14.06-29.22,31.04Z"/>
  <path class="cls-1" d="M1143.89,170.95h-21.13v-14.08c-6.67,8.6-16.69,14.15-30.43,14.15-27.09,0-48.42-21.33-48.42-50.96s21.33-50.96,48.42-50.96c13.76,0,23.76,5.66,30.43,14.26v-11.72h21.13v99.3ZM1065.64,120.08c0,16.98,11.02,31.04,29.22,31.04s29.21-13.35,29.21-31.04-11.72-31.04-29.21-31.04-29.22,14.05-29.22,31.04Z"/>
  <path class="cls-1" d="M1234.78,84.86V24.39h21.13v147.8h-21.13v-13.82c-6.67,8.6-16.69,14.15-30.43,14.15-27.09,0-48.42-21.33-48.42-50.96s21.33-50.96,48.42-50.96c13.74-.01,23.75,5.66,30.43,14.24ZM1177.65,121.56c0,16.98,11.02,31.04,29.22,31.04s29.22-13.35,29.22-31.04-11.72-31.05-29.22-31.05c-18.2.01-29.22,14.06-29.22,31.05Z"/>
  <polygon class="cls-1" points="1374.7 106.93 1299.89 106.93 1299.89 170.95 1276.63 170.95 1276.63 24.4 1379.43 24.4 1379.43 46.43 1299.89 46.43 1299.89 84.92 1374.7 84.92 1374.7 106.93"/>
  <path class="cls-1" d="M1476.48,119.98c0,2.73-.2,5.46-.41,7.88h-71.59c2.83,17.39,15.06,24.67,28.82,24.67,9.7,0,20.01-3.84,28-10.21l10.52,15.06c-11.82,10.11-25.17,13.65-39.84,13.65-29.02,0-49.54-20.22-49.54-50.96s19.72-50.96,48.23-50.96,45.7,20.62,45.8,50.85ZM1404.6,111.79h50.25c-2.33-15.06-11.12-23.87-24.57-23.87-15.07,0-23.46,9.71-25.68,23.87Z"/>
  <rect class="cls-1" x="1488.51" y="24.6" width="21.23" height="146.11"/>
  <path class="cls-1" d="M1554.22,38.43c0,8.52-6.57,15-14.96,15s-14.76-6.48-14.76-15,6.37-15.2,14.76-15.2,14.96,6.67,14.96,15.2ZM1549.97,170.84h-21.23v-98.41h21.23v98.41Z"/>
  <polygon class="cls-1" points="1645 89.36 1592.13 151.64 1646.01 151.64 1646.01 170.85 1564.02 170.85 1564.02 155.48 1617.81 93.2 1565.64 93.2 1565.64 73.99 1645 73.99 1645 89.36"/>
  <g>
    <path class="cls-1" d="M40.8,131.38l2.94-21.03,52.42-26.78,31.02,15.34,2,22.91c4.89,3.1,9.35,6.77,13.27,10.8,2.76-.52,5.62-1.25,8.54-1.25,18.61,0,34.61,11.61,41.66,27.59V9.71c0-2.67-1.09-5.09-2.85-6.86-1.75-1.77-4.19-2.85-6.86-2.85H9.71c-1.82,0-3.51.5-4.97,1.37C1.91,3.07,0,6.18,0,9.71v149.24c6.95-15.74,22.56-27.21,40.8-27.57ZM149.27,106.75l-53.09-27.33v-27.27l49.89,32.62,3.2,21.98ZM50.39,63.06l45.79-37.11,46.7,36.77,2.79,19.2-49.49-33.21-48.47,33.55,2.69-19.2ZM47.3,85.11l20.85-14.05-2.02,24.39-21.91,11.63,3.08-21.97Z"/>
    <path class="cls-1" d="M153.69,139.86c-3.06,0-6.05.28-8.96.81-12.26-12.03-29.61-19.52-48.61-19.52s-35.96,7.47-48.22,19.52c-2.9-.52-5.9-.81-8.96-.81-16.07,0-30.27,7.55-38.95,19.11v23.97c0,1.34.27,2.61.77,3.78,1.47,3.48,4.94,5.94,8.94,5.94h173.23c2.68,0,5.09-1.09,6.85-2.85,1.77-1.75,2.85-4.18,2.85-6.86v-23.96c-8.68-11.56-22.89-19.11-38.95-19.11Z"/>
  </g>
</svg>